<?xml version="1.0" standalone="no"?>
<!DOCTYPE svg PUBLIC "-//W3C//DTD SVG 20010904//EN"
 "http://www.w3.org/TR/2001/REC-SVG-20010904/DTD/svg10.dtd">
<svg version="1.0" xmlns="http://www.w3.org/2000/svg"
 width="1000.000000pt" height="1000.000000pt" viewBox="0 0 1000.000000 1000.000000"
 preserveAspectRatio="xMidYMid meet">
<metadata>
Created by potrace 1.11, written by Peter Selinger 2001-2013
</metadata>
<g transform="translate(0.000000,1000.000000) scale(0.100000,-0.100000)"
fill="#000000" stroke="none">
<path d="M1225 9344 c-193 -47 -366 -187 -455 -369 -75 -153 -70 -4 -70 -2032
l0 -1823 400 0 400 0 0 1720 0 1720 3440 0 3440 0 0 -3440 0 -3440 -3440 0
-3440 0 0 1715 0 1715 -400 0 -400 0 2 -1843 3 -1842 27 -73 c42 -114 85 -180
172 -268 88 -87 154 -130 268 -172 l73 -27 3668 -3 c4086 -2 3725 -9 3882 68
142 69 246 173 315 315 76 156 70 -200 70 3856 0 3596 0 3647 -20 3723 -61
241 -255 435 -496 496 -76 20 -126 20 -3728 19 -3152 -1 -3659 -3 -3711 -15z"/>
<path d="M4725 8102 c-115 -43 -177 -95 -195 -163 -11 -39 -9 -45 21 -93 18
-28 39 -64 48 -81 15 -27 16 -257 15 -2455 0 -1334 -3 -2506 -5 -2605 -4 -172
-3 -182 20 -232 51 -115 202 -207 533 -327 362 -131 645 -178 731 -121 16 10
49 53 73 95 25 43 57 88 72 102 15 14 257 125 537 249 l510 223 122 -3 c104
-2 126 0 160 17 91 47 188 196 228 350 23 92 12 116 -104 233 -192 193 -586
477 -725 523 l-49 17 -84 -40 c-46 -22 -102 -53 -126 -69 -37 -26 -701 -332
-720 -332 -4 0 -7 879 -7 1954 0 1461 3 1962 12 1987 6 19 31 67 56 107 69
115 85 158 78 205 -19 120 -177 240 -426 326 -360 124 -661 176 -775 133z"/>
<path d="M3433 6294 c-92 -45 -152 -130 -173 -244 -14 -77 -6 -148 25 -216
112 -250 425 -245 541 9 24 54 26 67 22 155 -5 114 -29 170 -100 239 -89 86
-212 109 -315 57z"/>
<path d="M3505 5191 c-82 -21 -151 -87 -186 -180 l-21 -56 9 -1260 c11 -1414
5 -1319 85 -1410 50 -57 109 -85 179 -85 70 1 123 25 176 82 81 89 77 -10 67
1429 l-9 1274 -35 64 c-33 61 -85 111 -135 131 -35 13 -99 19 -130 11z"/>
</g>
</svg>
